<svg xmlns="http://www.w3.org/2000/svg" xmlns:xlink="http://www.w3.org/1999/xlink" xmlns:inkscape="http://www.inkscape.org/namespaces/inkscape" version="1.1" width="545.1694" height="277.19898" viewBox="0 0 545.1694 277.19898">
<defs>
<clipPath id="clip_1">
<path transform="matrix(1,0,0,-1,4.3307,272.8683)" d="M-4-4H541V273H-4Z" clip-rule="evenodd"/>
</clipPath>
</defs>
<g clip-path="url(#clip_1)">
<path transform="matrix(1,0,0,-1,4.3307,272.8683)" d="M.2835 268.2541H536.2245V.2835H.2835Z" fill="#1a1a18" fill-rule="evenodd"/>
<path transform="matrix(1,0,0,-1,4.3307,272.8683)" stroke-width=".5669" stroke-linecap="butt" stroke-miterlimit="22.925585" stroke-linejoin="miter" fill="none" stroke="#1a1a18" d="M.2835 268.2541H536.2245V.2835H.2835Z"/>
<path transform="matrix(1,0,0,-1,4.3307,272.8683)" d="M102.0209 222.0208C105.4593 219.223 108.1956 215.9881 110.2297 212.3161 112.2636 208.6441 113.7648 204.6847 114.7334 200.4381 115.702 196.1915 116.2471 191.7201 116.3682 187.0237 116.4892 182.3275 116.356 177.5313 115.9685 172.635 115.8715 171.5859 115.7868 170.5493 115.7142 169.5251 115.6416 168.501 115.5325 167.4893 115.3874 166.4901 114.9999 162.9927 114.5398 159.3332 114.0072 155.5112 113.4743 151.6893 112.9175 148.0297 112.3362 144.5326L111.7551 141.0103C111.416 139.3118 111.1014 137.5381 110.8108 135.6894 110.5203 133.8409 110.2538 132.0925 110.0117 130.4436 109.4788 127.0964 108.8493 123.6742 108.123 120.1768 107.3965 116.6797 106.6215 113.4323 105.7983 110.4347 108.4136 112.9326 111.0044 115.8554 113.5712 119.2025 116.138 122.55 118.6322 126.0723 121.0535 129.7692 123.4752 133.4662 125.7999 137.2382 128.0276 141.0851 130.2554 144.932 132.3377 148.6542 134.2749 152.2514 136.2121 155.8485 137.9557 159.1832 139.5054 162.256 141.0551 165.3284 142.3627 167.9389 143.4283 170.0872 145.2685 174.0339 147.1331 178.2306 149.0219 182.677 150.9106 187.1237 152.6298 191.5328 154.1795 195.9041 155.7295 200.2757 157.049 204.4973 158.1386 208.569 159.2283 212.6409 159.9185 216.3005 160.2091 219.5478 160.3545 221.2464 160.3908 222.8576 160.3182 224.3815 160.2454 225.9054 160.088 227.2167 159.846 228.316 159.7005 228.6655 159.5673 229.1029 159.4463 229.6273 159.3252 230.152 159.2283 230.7016 159.1557 231.2759 159.0831 231.8505 159.0591 232.4126 159.0831 232.9622 159.1072 233.5119 159.2405 234.0113 159.4826 234.4609 159.9185 234.9607 160.4511 235.1356 161.081 234.9856 161.7106 234.8357 162.3521 234.5111 163.006 234.0113 163.6597 233.5119 164.2652 232.9498 164.8222 232.3253 165.3789 231.7008 165.7786 231.1886 166.0207 230.7889 167.8609 225.3433 168.4908 218.9234 167.9094 211.5292 167.6188 208.0321 166.9893 204.285 166.0207 200.2881 165.0521 196.2913 163.8536 192.1572 162.4249 187.8854 160.9963 183.6139 159.3374 179.2672 157.4487 174.8458 155.56 170.4243 153.538 166.0405 151.3828 161.6939 149.2277 157.3472 146.9758 153.1006 144.6267 148.9541 142.278 144.8073 139.8929 140.8853 137.4712 137.1883 135.4374 134.2406 133.27 131.2679 130.9697 128.2706 128.6691 125.2729 126.3447 122.4125 123.9956 119.6898 121.6468 116.9668 119.298 114.4063 116.9493 112.0085 114.6005 109.6104 112.3846 107.5368 110.3023 105.7884 108.8008 104.5894 107.2511 103.4527 105.6529 102.3786 104.0547 101.3043 102.4325 100.3425 100.7858 99.4932 99.1392 98.644 97.4684 97.9696 95.7733 97.4699 94.0782 96.9704 92.4075 96.7204 90.7608 96.7204 90.0828 96.7204 89.4047 96.7329 88.7267 96.7581 88.0486 96.783 87.516 96.8454 87.1285 96.9454 86.3538 97.0452 85.6757 97.2825 85.0946 97.6572 84.5133 98.032 84.3197 98.519 84.5133 99.1185 84.5617 99.3183 84.6709 99.5559 84.8404 99.8306 85.0099 100.1052 85.1672 100.3677 85.3123 100.6174V100.5423C85.7968 101.0421 86.2809 101.6666 86.7654 102.416 87.2495 103.1652 87.6129 103.9649 87.855 104.8141 88.3392 106.2629 88.9084 108.2614 89.562 110.8094 90.216 113.3572 90.9062 116.3049 91.6325 119.6524 92.359 122.9995 93.0974 126.6466 93.8483 130.5935 94.5989 134.5405 95.3133 138.6247 95.9913 142.8463 96.6694 147.0679 97.2867 151.3395 97.8437 155.6612 98.4008 159.9826 98.8486 164.217 99.1877 168.3635 99.5267 172.4604 99.7447 176.2322 99.8413 179.6797 99.9383 183.1269 99.9383 186.0494 99.8413 188.4475 99.5023 192.4444 98.8243 196.4038 97.8075 200.3255 96.7904 204.2476 95.3254 207.8073 93.4123 211.0045 91.4992 214.202 89.1142 216.8626 86.2569 218.9857 83.3995 221.1092 79.9608 222.3955 75.9413 222.8451 73.0355 222.4956 70.1297 221.3714 67.2239 219.473 64.3181 217.5744 61.6666 215.1887 59.2693 212.3161 56.8721 209.4435 54.8623 206.1961 53.2397 202.5737 51.6175 198.9516 50.6367 195.2422 50.2977 191.4452 50.0071 187.848 50.2373 184.3758 50.9879 181.0284 51.7385 177.6813 52.8282 174.7335 54.2568 172.1854 55.6855 169.6377 57.3684 167.6392 59.3056 166.1902 61.2428 164.7414 63.2285 164.1169 65.2626 164.3168 67.3934 164.3666 69.4276 165.1161 71.3648 166.5649 73.302 168.0137 75.0696 169.8248 76.6678 171.9981 78.266 174.1714 79.634 176.5071 80.7721 179.005 81.9102 181.5032 82.7456 183.8013 83.2785 185.8995 83.2785 186.0993 83.2663 186.3119 83.2422 186.5367 83.2178 186.7615 83.23 186.9738 83.2785 187.1736 83.3751 187.973 83.5569 188.6848 83.8233 189.3093 84.0895 189.934 84.7556 190.296 85.8209 190.3961 86.5474 190.4958 87.0197 190.2586 87.2376 189.684 87.4553 189.1094 87.516 188.4475 87.4191 187.698 87.3706 187.0985 87.298 186.5991 87.2011 186.1994 87.1044 185.7997 87.0075 185.4499 86.9105 185.1503V185.2251C86.8139 184.9754 86.7654 184.8254 86.7654 184.7755 86.7654 184.7256 86.7654 184.6755 86.7654 184.6256L86.838 184.7007C86.741 184.5009 86.6928 184.4008 86.6928 184.4008L86.62 184.326C86.62 184.2259 86.6081 184.1511 86.5837 184.1012 86.5596 184.051 86.5474 183.9762 86.5474 183.8761H86.62C85.6998 180.5788 84.3559 177.319 82.5883 174.0966 80.8206 170.8741 78.726 167.9888 76.3044 165.441 73.8831 162.8929 71.159 160.8321 68.1318 159.2583 65.105 157.6845 61.8968 156.8976 58.5065 156.8976 57.6833 156.8976 56.9083 156.9226 56.1818 156.9725 55.4556 157.0226 54.826 157.1224 54.2931 157.2724 51.1452 158.0219 48.433 159.2833 46.1571 161.0569 43.8809 162.8306 42.0163 164.9412 40.5632 167.3892 39.1105 169.8375 38.0812 172.5602 37.476 175.5578 36.8705 178.5555 36.7132 181.6778 37.0037 184.9255 37.0522 185.4748 37.1733 186.2867 37.3669 187.361 37.5608 188.4351 37.8269 189.5468 38.166 190.6957 39.2315 195.1424 40.987 199.4264 43.4327 203.548 45.8785 207.6698 48.8327 211.3917 52.2955 214.7142 55.7583 218.0364 59.6083 220.847 63.8459 223.145 68.0837 225.4431 72.527 226.967 77.1763 227.7164 78.3386 227.8661 79.4404 227.9911 80.4815 228.0912 81.5227 228.191 82.2855 228.2409 82.77 228.2409 86.5959 228.2409 90.216 227.6915 93.6303 226.5922 97.0447 225.4932 100.0108 223.8443 102.5291 221.646Z" fill="#ffed00"/>
<path transform="matrix(1,0,0,-1,4.3307,272.8683)" d="M353.5047 145.8714C350.3959 140.8119 346.2063 136.1772 341.5198 136.8176 340.043 137.0191 338.6758 137.6045 337.3841 138.354 336.2913 136.1557 335.1983 134.0824 334.1055 132.1339 333.0128 130.1854 332.0192 128.4369 331.1249 126.8881 330.2308 125.3894 329.2373 123.8905 328.1443 122.3918 327.0515 120.8931 325.8343 119.5441 324.4932 118.345 323.1519 117.146 321.6617 116.1842 320.0221 115.4599 318.3829 114.7354 316.5698 114.4233 314.5827 114.5231 312.8936 114.573 311.4904 115.0603 310.3727 115.9843 309.255 116.9087 308.3607 118.1701 307.69 119.7689 307.0193 121.3676 306.5474 123.2286 306.2744 125.352 306.0011 127.4751 305.8645 129.7358 305.8645 132.1339 305.8645 134.0824 305.9391 136.1058 306.0882 138.204 306.1874 139.6015 306.303 140.9825 306.4354 142.3468 305.8767 141.2717 305.2945 140.1656 304.689 139.0286 303.5974 136.98 302.43 134.907 301.1862 132.8085 299.9426 130.7103 298.6991 128.7119 297.4555 126.8133 296.2123 124.9146 294.9435 123.179 293.6486 121.6052 292.3549 120.0314 291.1238 118.7694 289.9562 117.8203 288.9408 116.9714 287.7228 116.2718 286.3018 115.7221 284.8802 115.1728 283.4841 114.8978 282.1139 114.8978 280.2869 114.8978 278.8656 115.5351 277.8506 116.8089 276.8355 118.0831 276.0868 119.6065 275.6044 121.3804 275.1222 123.1537 274.856 124.9894 274.805 126.8884 274.7543 128.787 274.8302 130.3608 275.0335 131.6095 275.0335 131.7095 275.0335 131.7719 275.0335 131.7971 275.0335 131.8218 275.0587 132.0094 275.1092 132.359 273.7389 130.1108 272.2289 127.9247 270.5794 125.8019 268.9294 123.6784 267.1784 121.7923 265.3257 120.1436 263.4732 118.495 261.5315 117.1585 259.5016 116.1346 257.4709 115.1099 255.3897 114.5979 253.258 114.5979 251.2786 114.5979 249.6033 114.9474 248.233 115.647 246.8628 116.3469 245.7711 117.2707 244.9596 118.4199 244.1472 119.5693 243.5632 120.918 243.2078 122.4669 242.8526 124.0155 242.6751 125.6394 242.6751 127.338 242.6751 127.6376 242.6751 127.9871 242.6751 128.3871 242.6751 128.787 242.7004 129.1618 242.7514 129.5113L242.78 129.7397C241.365 127.1021 235.8536 117.9196 235.7178 115.6689 235.6934 115.2692 235.6571 114.9443 235.6087 114.6946 235.3666 113.8952 234.9791 113.4955 234.4465 113.4955 233.0419 114.8944 231.2016 115.831 228.9254 116.3058 226.6492 116.7803 224.1309 117.0176 221.3702 117.0176 219.53 117.0176 217.6534 116.9552 215.7403 116.8302 213.8275 116.7055 211.9266 116.568 210.0379 116.418 208.2943 116.2684 206.5992 116.1309 204.9528 116.0059 203.3062 115.8812 201.7806 115.8185 200.376 115.8185 199.1653 115.8185 198.0513 115.8812 197.0345 116.0059 196.0174 116.1309 195.1214 116.3183 194.3467 116.568 192.022 117.2174 190.8595 118.6914 190.8595 120.9895 190.8595 121.9388 191.0897 122.9879 191.5498 124.1371 192.0098 125.2862 192.7726 126.5601 193.8382 127.959 195.3879 129.9574 197.1918 132.0307 199.2501 134.1791 201.3083 136.3275 203.4998 138.4631 205.8245 140.5865 208.1492 142.7097 210.5342 144.8082 212.98 146.8814 215.4257 148.9547 217.7986 150.9032 220.0992 152.7267 222.3995 154.5503 224.5547 156.2366 226.5644 157.7852 228.5742 159.334 230.33 160.683 231.8312 161.8322L234.8824 164.2303C234.301 164.38 233.4535 164.4551 232.3397 164.4551 231.5166 164.4551 230.5236 164.4174 229.3614 164.3426 228.1989 164.2677 227.0367 164.1801 225.8745 164.0803 224.3245 163.9304 222.6538 163.7929 220.862 163.6682 219.0699 163.5432 217.3266 163.4808 215.6315 163.4808 213.0163 163.4808 210.5583 163.7056 208.258 164.1552 205.9577 164.6048 204.2206 165.3386 202.7194 166.6375 200.3607 162.0241 198.0771 157.3872 195.7564 152.7656 193.2024 147.6788 190.4423 142.6065 187.4262 137.7791 185.8691 135.2866 184.2548 132.8598 182.5832 130.4986 180.9116 128.1376 179.2539 126.0507 177.6101 124.2383 175.9663 122.4261 174.3415 120.9878 172.7354 119.9239 171.1295 118.8601 169.6255 118.3657 168.2229 118.4417 166.5303 118.533 165.1334 118.9585 164.0322 119.7184 162.9312 120.4781 162.0609 121.4884 161.4217 122.7484 160.7822 124.0087 160.3587 125.4574 160.151 127.0945 159.9429 128.7317 159.8871 130.4983 159.9831 132.3941 160.0135 132.9928 160.0566 133.6034 160.1124 134.2256 160.1683 134.8481 160.2357 135.4572 160.3142 136.0534 160.9492 140.9219 162.015 145.6795 163.5117 150.3266 165.0084 154.9735 166.6264 159.6263 168.3663 164.285L169.5566 167.6727 169.5526 167.5979C169.7383 168.3884 169.8463 169.0829 169.8766 169.6816 169.9044 170.2304 169.977 170.7018 170.0938 171.0958 170.3203 171.7339 170.7267 172.0996 171.3135 172.1931 171.9003 172.2864 172.527 172.2152 173.194 171.9791 175.1873 171.121 176.6205 170.2182 177.4939 169.2703 178.3672 168.3227 178.7672 167.1256 178.6938 165.6785 178.6584 164.9801 178.5345 164.2113 178.3222 163.3723 178.1099 162.5332 177.8335 161.6227 177.4928 160.6405 176.9281 159.0701 176.2858 157.1661 175.566 154.9287 174.8463 152.6913 174.1326 150.3283 173.4242 147.8401 172.7161 145.3521 172.0689 142.8729 171.483 140.4031 170.8971 137.9333 170.43 135.6574 170.0819 133.575 170.0082 133.0787 169.9447 132.5443 169.8914 131.9717 169.8381 131.3994 169.8012 130.9136 169.7811 130.5145 169.6924 128.768 169.7902 127.3496 170.0745 126.2585 170.3585 125.1677 170.9104 124.575 171.7299 124.4806 172.4071 124.4443 173.2144 124.8259 174.1524 125.6258 175.0901 126.4255 176.1021 127.4967 177.1886 128.8386 178.2751 130.1808 179.3954 131.7087 180.5494 133.4225 181.7031 135.1363 182.8607 136.9247 184.0221 138.7882 186.6467 142.9985 188.9563 147.0983 191.215 151.52L200.8845 170.4501C200.8845 170.7999 200.9452 171.362 201.0662 172.1364 201.1873 172.9108 201.3568 173.6853 201.5748 174.4594 201.7928 175.2338 202.0589 175.896 202.3739 176.4454 202.6885 176.995 203.0638 177.2447 203.4998 177.1948 203.8388 177.0951 204.0568 176.9202 204.1537 176.6701 204.2504 176.4204 204.3473 176.0958 204.4443 175.6962L204.7348 174.9467C205.0254 174.4469 205.5217 174.0223 206.2239 173.6725 206.9263 173.323 207.7858 173.048 208.8028 172.8482 209.8199 172.6483 210.958 172.4987 212.2172 172.3986 213.4763 172.2988 214.7839 172.2487 216.14 172.2487 218.0772 172.2487 220.0263 172.3113 221.9879 172.436 223.9492 172.561 225.8016 172.6736 227.5452 172.7734 230.0151 172.9233 231.9282 172.9981 233.2843 172.9981 234.5916 172.9981 235.8992 172.8108 237.2068 172.436 238.5145 172.0613 239.6648 171.4995 240.6574 170.75 241.6504 170.0005 242.401 169.0515 242.9096 167.9023 243.4181 166.7531 243.527 165.3792 243.2364 163.7804 243.1879 163.4808 243.091 163.2059 242.9459 162.9561 242.8004 162.7064 242.5584 162.5814 242.2193 162.5814 241.8803 162.5814 241.5657 162.7064 241.2751 162.9561L241.1297 163.031C237.6428 161.1326 234.059 158.7095 230.3785 155.7618 226.6977 152.8143 223.0897 149.6293 219.5544 146.2071 216.019 142.7848 212.6409 139.2749 209.4202 135.6778 206.1998 132.0806 203.2818 128.6583 200.6666 125.411 201.151 125.1612 202.2647 125.0362 204.0083 125.0362 205.0254 125.0362 206.1876 125.0864 207.4952 125.1862 208.8028 125.2862 210.183 125.386 211.6361 125.4861 213.3794 125.5859 215.1592 125.6984 216.9754 125.8231 218.7916 125.9481 220.5471 126.0105 222.2422 126.0105 224.0824 126.0105 225.7654 125.9107 227.291 125.7109 228.8166 125.511 230.0394 125.1113 230.9596 124.5118 231.6376 124.062 232.2672 123.5999 232.8483 123.1254 233.4294 122.6506 233.9379 122.0386 234.3739 121.2894 234.616 121.739 234.8702 122.226 235.1364 122.7506 235.4029 123.2753 235.7663 123.9746 236.2263 124.8489 236.6864 125.7233 237.2916 126.8348 238.0422 128.1838 238.7931 129.5328 239.7617 131.2937 240.948 133.467 242.1346 135.6403 243.5876 138.2632 245.3068 141.3357 246.2474 143.0167 247.2854 144.8804 248.4215 146.9273L248.4992 147.0847C250.0478 150.2073 251.8364 153.2424 253.8672 156.1901 255.8974 159.1376 258.118 161.7483 260.5292 164.0211 262.9403 166.2945 265.4906 168.1183 268.1807 169.492 270.8711 170.8659 273.6629 171.553 276.5557 171.553 278.7894 171.553 280.7691 171.0283 282.4943 169.9792 284.2209 168.9301 285.6671 167.5687 286.8347 165.8948 288.0017 164.2212 288.8521 162.3478 289.3853 160.2743 289.9182 158.201 290.1081 156.1153 289.9562 154.0168 289.804 152.5677 289.4992 151.219 289.0426 149.97L288.966 149.8952C288.8646 149.7453 288.5732 149.5953 288.091 149.4454 287.6085 149.2957 287.2658 149.2206 287.0631 149.2206 286.454 149.2206 285.9208 149.5205 285.4644 150.12 285.6671 150.6696 285.8063 151.1816 285.8828 151.6558 286.1175 153.1171 286.2247 153.8918 286.0982 155.4123 286.0517 155.9724 285.9795 156.5442 285.8828 157.1267 285.6543 158.5003 285.2359 159.7371 284.6265 160.8364 284.0176 161.9354 283.231 162.8473 282.2664 163.5715 281.302 164.2963 280.1341 164.6583 278.7642 164.6583 276.9877 164.6583 275.1857 163.9715 273.3582 162.5973 271.5307 161.2239 269.7797 159.4497 268.105 157.2766 266.4298 155.1033 264.8563 152.6678 263.3842 149.97 261.9122 147.272 260.6054 144.5868 259.4633 141.9137 258.3213 139.2409 257.3952 136.7306 256.6845 134.3823 255.9736 132.0341 255.5677 130.1357 255.4662 128.687 255.4149 127.9871 255.4024 127.2379 255.4285 126.4385 255.4537 125.6394 255.5929 124.9027 255.8466 124.2281 256.1003 123.5537 256.4813 123.0038 256.9887 122.5794 257.4961 122.1545 258.207 121.9422 259.1209 121.9422 260.6941 121.9422 262.3567 122.7294 264.1076 124.3032 265.8586 125.8767 267.5594 127.7875 269.2091 130.0357 270.8583 132.2841 272.3941 134.6448 273.8151 137.1175 275.2367 139.5904 276.429 141.7518 277.3936 143.6 277.5458 144.1497 277.7871 144.7991 278.117 145.5486 278.447 146.298 278.5606 147.1224 278.4594 148.0215 278.358 148.7205 278.6369 149.1829 279.2974 149.4077 281.766 150.249 285.827 149.5338 287.71 147.759 288.9031 146.6348 289.5755 145.2986 289.7277 143.75 289.8797 142.151 289.715 140.4275 289.2328 138.579 288.7506 136.7306 288.3824 135.0071 288.1287 133.4081 288.0782 133.0586 287.9892 132.4837 287.8622 131.6846 287.7352 130.8852 287.6213 130.0107 287.5195 129.0614 287.418 128.1124 287.3424 127.1509 287.2919 126.1766 287.2406 125.2023 287.2783 124.3899 287.4053 123.7408 287.5329 123.0914 287.7605 122.667 288.091 122.4669 288.4209 122.2671 288.9156 122.4417 289.5755 122.9913 290.7935 124.1904 292.0878 125.7517 293.4587 127.6753 294.8289 129.5986 296.1867 131.6472 297.5321 133.8199 298.8771 135.9933 300.1711 138.1918 301.4147 140.4153 302.6582 142.6385 303.7876 144.6744 304.8029 146.5228 305.3611 147.7219 305.9323 148.8586 306.5159 149.9323 306.8997 150.639 307.2455 151.2643 307.5525 151.8089 307.7351 153.1684 307.9174 154.4536 308.0999 155.6649 308.4477 157.8132 308.721 159.6742 308.9197 161.248 309.1181 162.8215 309.1927 163.9831 309.1431 164.7326 309.0934 165.4319 308.9818 166.0314 308.8077 166.5312 308.634 167.0306 308.4724 167.4802 308.3236 167.8799 308.2241 168.0797 308.1495 168.2422 308.0999 168.3672 308.0503 168.4919 308.0254 168.6793 308.0254 168.929 307.9261 169.6286 308.1249 170.1281 308.6215 170.428 309.1181 170.7276 309.7145 170.9274 310.4099 171.0275 311.4034 171.1772 312.4466 171.2024 313.5396 171.1023 314.6323 171.0026 315.4022 170.8526 315.8495 170.6528 317.4392 169.8534 318.6312 168.6169 319.426 166.9433 320.2209 165.2695 320.6682 163.4837 320.7674 161.585 320.817 160.5858 320.8048 159.5367 320.7302 158.4377 320.6557 157.3384 320.5687 156.2519 320.4694 155.1779 320.37 154.1035 320.2333 153.0918 320.0596 152.1428 319.8855 151.1935 319.7242 150.3442 319.5751 149.5947 319.3764 148.4957 319.1652 147.2465 318.9419 145.8479 318.7182 144.449 318.4948 142.975 318.2712 141.4264 318.0475 139.8776 317.8488 138.3038 317.6751 136.7053 317.4202 134.3608 317.253 132.2393 317.1535 129.9231 317.1285 129.3486 317.1161 128.7615 317.1161 128.162 317.1161 127.4128 317.1535 126.6758 317.228 125.9515 317.3026 125.227 317.4392 124.5651 317.6379 123.9656 317.8366 123.366 318.1221 122.8663 318.4948 122.4666 318.8673 122.0669 319.3764 121.8421 320.0221 121.7923 320.817 121.6922 321.5747 121.8546 322.295 122.2792 323.0152 122.7042 323.7109 123.241 324.3813 123.8905 325.0519 124.5402 325.6605 125.2519 326.2071 126.0264 326.7533 126.8008 327.2253 127.5375 327.6227 128.2371 328.6162 129.8358 329.6843 131.6718 330.827 133.7451 331.9693 135.8184 333.2115 138.204 334.5525 140.9017 336.0733 144.6591 335.8159 142.3191 335.6263 145.2555 334.9721 155.3941 343.1957 176.0624 347.705 175.0603 354.4296 173.5662 345.7528 155.3737 343.7181 150.7938L339.5452 142.1008C342.7554 139.568 346.2004 142.3681 348.9732 146.0489 350.229 147.7162 351.144 149.3172 352.148 151.1252 353.5466 153.6429 354.8636 156.5399 356.5998 159.7272 358.3361 162.9145 360.2151 166.1264 362.2371 169.3633 364.2593 172.6002 366.3558 175.7517 368.5269 178.8182 370.6977 181.8845 372.8506 184.5944 374.9854 186.948 377.1201 189.3019 379.2302 191.1694 381.3157 192.5512 383.4011 193.9329 385.3548 194.5746 387.1763 194.4763 389.3746 194.3578 391.1888 193.805 392.6186 192.818 394.0486 191.8312 395.1788 190.5197 396.0088 188.8829 396.8391 187.2465 397.3893 185.3651 397.6591 183.2389 397.9293 181.1129 398.0018 178.8185 397.8768 176.3563 397.8374 175.5788 397.7816 174.786 397.709 173.9778 397.6364 173.1696 397.5491 172.3785 397.4468 171.6043 396.6222 165.2817 395.238 159.103 393.2946 153.068 391.3509 147.0334 389.2493 140.9907 386.9901 134.9405L385.4443 130.5408 385.4492 130.638C385.2082 129.6116 385.0679 128.7096 385.0285 127.9321 384.9922 127.2195 384.8984 126.6072 384.7465 126.0955 384.4525 125.267 383.9244 124.7919 383.1625 124.6706 382.4008 124.5492 381.5867 124.6419 380.7204 124.9486 378.1318 126.0629 376.2703 127.2353 375.1362 128.4661 374.002 129.6969 373.4824 131.2517 373.578 133.1308 373.6239 134.0379 373.7846 135.0363 374.0604 136.1259 374.3362 137.2156 374.6954 138.3979 375.1379 139.6735 375.8712 141.713 376.7051 144.1857 377.6397 147.0915 378.5746 149.997 379.5015 153.0655 380.4214 156.297 381.3409 159.5285 382.1814 162.7478 382.9425 165.9552 383.7036 169.1626 384.3099 172.1186 384.762 174.8231 384.8579 175.4677 384.9403 176.1616 385.0095 176.9049 385.0787 177.6484 385.1263 178.2794 385.1527 178.7975 385.2677 181.0653 385.1408 182.9078 384.7717 184.3245 384.4029 185.7413 383.686 186.5109 382.6216 186.6334 381.7423 186.6807 380.6938 186.1852 379.476 185.1463 378.258 184.1077 376.9435 182.7167 375.5327 180.9737 374.1216 179.2307 372.6669 177.2464 371.1682 175.0209 369.6698 172.7952 368.1663 170.4725 366.658 168.0525 365.1497 165.6326 363.706 163.2416 362.3264 160.8797 360.9471 158.5179 359.7038 156.3596 358.5971 154.4054 357.7017 152.8943 356.9253 151.5557 356.2676 150.3893 355.413 148.8728 354.422 147.3656 353.5047 145.8714ZM183.6592 186.1226C184.1406 185.0958 184.4691 184.1652 184.6451 183.3301 184.8209 182.4951 184.8671 181.7297 184.7832 181.0338 184.5522 179.3455 183.7843 178.0736 182.48 177.2184 181.1758 176.3634 179.8466 175.9723 178.4923 176.0454 177.3317 176.108 176.3408 176.6494 175.5196 177.6694 174.6984 178.6893 174.3891 180.2443 174.5923 182.3346 174.6811 183.13 174.8914 183.9317 175.2233 184.7392 175.5553 185.5468 175.9555 186.2631 176.4235 186.8882 176.8918 187.5135 177.4383 188.0093 178.0631 188.3755 178.6878 188.742 179.3387 188.907 180.0159 188.8705 180.6446 188.8367 181.2753 188.6026 181.908 188.168 182.5407 187.7338 183.1243 187.0517 183.6592 186.1226ZM367.1294 106.581C366.5044 107.9141 366.0775 109.1228 365.8493 110.2071 365.6208 111.2916 365.561 112.2854 365.6699 113.1894 365.97 115.382 366.967 117.0337 368.661 118.1443 370.3547 119.2547 372.081 119.7626 373.8396 119.6677 375.3471 119.5863 376.634 118.8833 377.7004 117.5587 378.7668 116.2344 379.1682 114.2147 378.9045 111.5002 378.7892 110.467 378.5159 109.4258 378.0848 108.377 377.6536 107.3285 377.134 106.3981 376.5263 105.5863 375.9182 104.7745 375.2084 104.1307 374.3972 103.6548 373.5856 103.1788 372.7403 102.9645 371.861 103.0119 371.0443 103.0561 370.2254 103.3603 369.4037 103.9243 368.5822 104.4884 367.8242 105.374 367.1294 106.581ZM339.4888 150.2436C339.628 148.5751 340.7964 148.5904 342.013 151.8551 343.0091 154.5279 348.5923 168.7374 346.6522 170.6494 345.3608 171.9224 339.0687 155.2731 339.4888 150.2436Z" fill="#ffed00"/>
<path transform="matrix(1,0,0,-1,4.3307,272.8683)" stroke-width=".216" stroke-linecap="butt" stroke-miterlimit="22.925585" stroke-linejoin="miter" fill="none" stroke="#ffed00" d="M353.5047 145.8714C350.3959 140.8119 346.2063 136.1772 341.5198 136.8176 340.043 137.0191 338.6758 137.6045 337.3841 138.354 336.2913 136.1557 335.1983 134.0824 334.1055 132.1339 333.0128 130.1854 332.0192 128.4369 331.1249 126.8881 330.2308 125.3894 329.2373 123.8905 328.1443 122.3918 327.0515 120.8931 325.8343 119.5441 324.4932 118.345 323.1519 117.146 321.6617 116.1842 320.0221 115.4599 318.3829 114.7354 316.5698 114.4233 314.5827 114.5231 312.8936 114.573 311.4904 115.0603 310.3727 115.9843 309.255 116.9087 308.3607 118.1701 307.69 119.7689 307.0193 121.3676 306.5474 123.2286 306.2744 125.352 306.0011 127.4751 305.8645 129.7358 305.8645 132.1339 305.8645 134.0824 305.9391 136.1058 306.0882 138.204 306.1874 139.6015 306.303 140.9825 306.4354 142.3468 305.8767 141.2717 305.2945 140.1656 304.689 139.0286 303.5974 136.98 302.43 134.907 301.1862 132.8085 299.9426 130.7103 298.6991 128.7119 297.4555 126.8133 296.2123 124.9146 294.9435 123.179 293.6486 121.6052 292.3549 120.0314 291.1238 118.7694 289.9562 117.8203 288.9408 116.9714 287.7228 116.2718 286.3018 115.7221 284.8802 115.1728 283.4841 114.8978 282.1139 114.8978 280.2869 114.8978 278.8656 115.5351 277.8506 116.8089 276.8355 118.0831 276.0868 119.6065 275.6044 121.3804 275.1222 123.1537 274.856 124.9894 274.805 126.8884 274.7543 128.787 274.8302 130.3608 275.0335 131.6095 275.0335 131.7095 275.0335 131.7719 275.0335 131.7971 275.0335 131.8218 275.0587 132.0094 275.1092 132.359 273.7389 130.1108 272.2289 127.9247 270.5794 125.8019 268.9294 123.6784 267.1784 121.7923 265.3257 120.1436 263.4732 118.495 261.5315 117.1585 259.5016 116.1346 257.4709 115.1099 255.3897 114.5979 253.258 114.5979 251.2786 114.5979 249.6033 114.9474 248.233 115.647 246.8628 116.3469 245.7711 117.2707 244.9596 118.4199 244.1472 119.5693 243.5632 120.918 243.2078 122.4669 242.8526 124.0155 242.6751 125.6394 242.6751 127.338 242.6751 127.6376 242.6751 127.9871 242.6751 128.3871 242.6751 128.787 242.7004 129.1618 242.7514 129.5113L242.78 129.7397C241.365 127.1021 235.8536 117.9196 235.7178 115.6689 235.6934 115.2692 235.6571 114.9443 235.6087 114.6946 235.3666 113.8952 234.9791 113.4955 234.4465 113.4955 233.0419 114.8944 231.2016 115.831 228.9254 116.3058 226.6492 116.7803 224.1309 117.0176 221.3702 117.0176 219.53 117.0176 217.6534 116.9552 215.7403 116.8302 213.8275 116.7055 211.9266 116.568 210.0379 116.418 208.2943 116.2684 206.5992 116.1309 204.9528 116.0059 203.3062 115.8812 201.7806 115.8185 200.376 115.8185 199.1653 115.8185 198.0513 115.8812 197.0345 116.0059 196.0174 116.1309 195.1214 116.3183 194.3467 116.568 192.022 117.2174 190.8595 118.6914 190.8595 120.9895 190.8595 121.9388 191.0897 122.9879 191.5498 124.1371 192.0098 125.2862 192.7726 126.5601 193.8382 127.959 195.3879 129.9574 197.1918 132.0307 199.2501 134.1791 201.3083 136.3275 203.4998 138.4631 205.8245 140.5865 208.1492 142.7097 210.5342 144.8082 212.98 146.8814 215.4257 148.9547 217.7986 150.9032 220.0992 152.7267 222.3995 154.5503 224.5547 156.2366 226.5644 157.7852 228.5742 159.334 230.33 160.683 231.8312 161.8322L234.8824 164.2303C234.301 164.38 233.4535 164.4551 232.3397 164.4551 231.5166 164.4551 230.5236 164.4174 229.3614 164.3426 228.1989 164.2677 227.0367 164.1801 225.8745 164.0803 224.3245 163.9304 222.6538 163.7929 220.862 163.6682 219.0699 163.5432 217.3266 163.4808 215.6315 163.4808 213.0163 163.4808 210.5583 163.7056 208.258 164.1552 205.9577 164.6048 204.2206 165.3386 202.7194 166.6375 200.3607 162.0241 198.0771 157.3872 195.7564 152.7656 193.2024 147.6788 190.4423 142.6065 187.4262 137.7791 185.8691 135.2866 184.2548 132.8598 182.5832 130.4986 180.9116 128.1376 179.2539 126.0507 177.6101 124.2383 175.9663 122.4261 174.3415 120.9878 172.7354 119.9239 171.1295 118.8601 169.6255 118.3657 168.2229 118.4417 166.5303 118.533 165.1334 118.9585 164.0322 119.7184 162.9312 120.4781 162.0609 121.4884 161.4217 122.7484 160.7822 124.0087 160.3587 125.4574 160.151 127.0945 159.9429 128.7317 159.8871 130.4983 159.9831 132.3941 160.0135 132.9928 160.0566 133.6034 160.1124 134.2256 160.1683 134.8481 160.2357 135.4572 160.3142 136.0534 160.9492 140.9219 162.015 145.6795 163.5117 150.3266 165.0084 154.9735 166.6264 159.6263 168.3663 164.285L169.5566 167.6727 169.5526 167.5979C169.7383 168.3884 169.8463 169.0829 169.8766 169.6816 169.9044 170.2304 169.977 170.7018 170.0938 171.0958 170.3203 171.7339 170.7267 172.0996 171.3135 172.1931 171.9003 172.2864 172.527 172.2152 173.194 171.9791 175.1873 171.121 176.6205 170.2182 177.4939 169.2703 178.3672 168.3227 178.7672 167.1256 178.6938 165.6785 178.6584 164.9801 178.5345 164.2113 178.3222 163.3723 178.1099 162.5332 177.8335 161.6227 177.4928 160.6405 176.9281 159.0701 176.2858 157.1661 175.566 154.9287 174.8463 152.6913 174.1326 150.3283 173.4242 147.8401 172.7161 145.3521 172.0689 142.8729 171.483 140.4031 170.8971 137.9333 170.43 135.6574 170.0819 133.575 170.0082 133.0787 169.9447 132.5443 169.8914 131.9717 169.8381 131.3994 169.8012 130.9136 169.7811 130.5145 169.6924 128.768 169.7902 127.3496 170.0745 126.2585 170.3585 125.1677 170.9104 124.575 171.7299 124.4806 172.4071 124.4443 173.2144 124.8259 174.1524 125.6258 175.0901 126.4255 176.1021 127.4967 177.1886 128.8386 178.2751 130.1808 179.3954 131.7087 180.5494 133.4225 181.7031 135.1363 182.8607 136.9247 184.0221 138.7882 186.6467 142.9985 188.9563 147.0983 191.215 151.52L200.8845 170.4501C200.8845 170.7999 200.9452 171.362 201.0662 172.1364 201.1873 172.9108 201.3568 173.6853 201.5748 174.4594 201.7928 175.2338 202.0589 175.896 202.3739 176.4454 202.6885 176.995 203.0638 177.2447 203.4998 177.1948 203.8388 177.0951 204.0568 176.9202 204.1537 176.6701 204.2504 176.4204 204.3473 176.0958 204.4443 175.6962L204.7348 174.9467C205.0254 174.4469 205.5217 174.0223 206.2239 173.6725 206.9263 173.323 207.7858 173.048 208.8028 172.8482 209.8199 172.6483 210.958 172.4987 212.2172 172.3986 213.4763 172.2988 214.7839 172.2487 216.14 172.2487 218.0772 172.2487 220.0263 172.3113 221.9879 172.436 223.9492 172.561 225.8016 172.6736 227.5452 172.7734 230.0151 172.9233 231.9282 172.9981 233.2843 172.9981 234.5916 172.9981 235.8992 172.8108 237.2068 172.436 238.5145 172.0613 239.6648 171.4995 240.6574 170.75 241.6504 170.0005 242.401 169.0515 242.9096 167.9023 243.4181 166.7531 243.527 165.3792 243.2364 163.7804 243.1879 163.4808 243.091 163.2059 242.9459 162.9561 242.8004 162.7064 242.5584 162.5814 242.2193 162.5814 241.8803 162.5814 241.5657 162.7064 241.2751 162.9561L241.1297 163.031C237.6428 161.1326 234.059 158.7095 230.3785 155.7618 226.6977 152.8143 223.0897 149.6293 219.5544 146.2071 216.019 142.7848 212.6409 139.2749 209.4202 135.6778 206.1998 132.0806 203.2818 128.6583 200.6666 125.411 201.151 125.1612 202.2647 125.0362 204.0083 125.0362 205.0254 125.0362 206.1876 125.0864 207.4952 125.1862 208.8028 125.2862 210.183 125.386 211.6361 125.4861 213.3794 125.5859 215.1592 125.6984 216.9754 125.8231 218.7916 125.9481 220.5471 126.0105 222.2422 126.0105 224.0824 126.0105 225.7654 125.9107 227.291 125.7109 228.8166 125.511 230.0394 125.1113 230.9596 124.5118 231.6376 124.062 232.2672 123.5999 232.8483 123.1254 233.4294 122.6506 233.9379 122.0386 234.3739 121.2894 234.616 121.739 234.8702 122.226 235.1364 122.7506 235.4029 123.2753 235.7663 123.9746 236.2263 124.8489 236.6864 125.7233 237.2916 126.8348 238.0422 128.1838 238.7931 129.5328 239.7617 131.2937 240.948 133.467 242.1346 135.6403 243.5876 138.2632 245.3068 141.3357 246.2474 143.0167 247.2854 144.8804 248.4215 146.9273L248.4992 147.0847C250.0478 150.2073 251.8364 153.2424 253.8672 156.1901 255.8974 159.1376 258.118 161.7483 260.5292 164.0211 262.9403 166.2945 265.4906 168.1183 268.1807 169.492 270.8711 170.8659 273.6629 171.553 276.5557 171.553 278.7894 171.553 280.7691 171.0283 282.4943 169.9792 284.2209 168.9301 285.6671 167.5687 286.8347 165.8948 288.0017 164.2212 288.8521 162.3478 289.3853 160.2743 289.9182 158.201 290.1081 156.1153 289.9562 154.0168 289.804 152.5677 289.4992 151.219 289.0426 149.97L288.966 149.8952C288.8646 149.7453 288.5732 149.5953 288.091 149.4454 287.6085 149.2957 287.2658 149.2206 287.0631 149.2206 286.454 149.2206 285.9208 149.5205 285.4644 150.12 285.6671 150.6696 285.8063 151.1816 285.8828 151.6558 286.1175 153.1171 286.2247 153.8918 286.0982 155.4123 286.0517 155.9724 285.9795 156.5442 285.8828 157.1267 285.6543 158.5003 285.2359 159.7371 284.6265 160.8364 284.0176 161.9354 283.231 162.8473 282.2664 163.5715 281.302 164.2963 280.1341 164.6583 278.7642 164.6583 276.9877 164.6583 275.1857 163.9715 273.3582 162.5973 271.5307 161.2239 269.7797 159.4497 268.105 157.2766 266.4298 155.1033 264.8563 152.6678 263.3842 149.97 261.9122 147.272 260.6054 144.5868 259.4633 141.9137 258.3213 139.2409 257.3952 136.7306 256.6845 134.3823 255.9736 132.0341 255.5677 130.1357 255.4662 128.687 255.4149 127.9871 255.4024 127.2379 255.4285 126.4385 255.4537 125.6394 255.5929 124.9027 255.8466 124.2281 256.1003 123.5537 256.4813 123.0038 256.9887 122.5794 257.4961 122.1545 258.207 121.9422 259.1209 121.9422 260.6941 121.9422 262.3567 122.7294 264.1076 124.3032 265.8586 125.8767 267.5594 127.7875 269.2091 130.0357 270.8583 132.2841 272.3941 134.6448 273.8151 137.1175 275.2367 139.5904 276.429 141.7518 277.3936 143.6 277.5458 144.1497 277.7871 144.7991 278.117 145.5486 278.447 146.298 278.5606 147.1224 278.4594 148.0215 278.358 148.7205 278.6369 149.1829 279.2974 149.4077 281.766 150.249 285.827 149.5338 287.71 147.759 288.9031 146.6348 289.5755 145.2986 289.7277 143.75 289.8797 142.151 289.715 140.4275 289.2328 138.579 288.7506 136.7306 288.3824 135.0071 288.1287 133.4081 288.0782 133.0586 287.9892 132.4837 287.8622 131.6846 287.7352 130.8852 287.6213 130.0107 287.5195 129.0614 287.418 128.1124 287.3424 127.1509 287.2919 126.1766 287.2406 125.2023 287.2783 124.3899 287.4053 123.7408 287.5329 123.0914 287.7605 122.667 288.091 122.4669 288.4209 122.2671 288.9156 122.4417 289.5755 122.9913 290.7935 124.1904 292.0878 125.7517 293.4587 127.6753 294.8289 129.5986 296.1867 131.6472 297.5321 133.8199 298.8771 135.9933 300.1711 138.1918 301.4147 140.4153 302.6582 142.6385 303.7876 144.6744 304.8029 146.5228 305.3611 147.7219 305.9323 148.8586 306.5159 149.9323 306.8997 150.639 307.2455 151.2643 307.5525 151.8089 307.7351 153.1684 307.9174 154.4536 308.0999 155.6649 308.4477 157.8132 308.721 159.6742 308.9197 161.248 309.1181 162.8215 309.1927 163.9831 309.1431 164.7326 309.0934 165.4319 308.9818 166.0314 308.8077 166.5312 308.634 167.0306 308.4724 167.4802 308.3236 167.8799 308.2241 168.0797 308.1495 168.2422 308.0999 168.3672 308.0503 168.4919 308.0254 168.6793 308.0254 168.929 307.9261 169.6286 308.1249 170.1281 308.6215 170.428 309.1181 170.7276 309.7145 170.9274 310.4099 171.0275 311.4034 171.1772 312.4466 171.2024 313.5396 171.1023 314.6323 171.0026 315.4022 170.8526 315.8495 170.6528 317.4392 169.8534 318.6312 168.6169 319.426 166.9433 320.2209 165.2695 320.6682 163.4837 320.7674 161.585 320.817 160.5858 320.8048 159.5367 320.7302 158.4377 320.6557 157.3384 320.5687 156.2519 320.4694 155.1779 320.37 154.1035 320.2333 153.0918 320.0596 152.1428 319.8855 151.1935 319.7242 150.3442 319.5751 149.5947 319.3764 148.4957 319.1652 147.2465 318.9419 145.8479 318.7182 144.449 318.4948 142.975 318.2712 141.4264 318.0475 139.8776 317.8488 138.3038 317.6751 136.7053 317.4202 134.3608 317.253 132.2393 317.1535 129.9231 317.1285 129.3486 317.1161 128.7615 317.1161 128.162 317.1161 127.4128 317.1535 126.6758 317.228 125.9515 317.3026 125.227 317.4392 124.5651 317.6379 123.9656 317.8366 123.366 318.1221 122.8663 318.4948 122.4666 318.8673 122.0669 319.3764 121.8421 320.0221 121.7923 320.817 121.6922 321.5747 121.8546 322.295 122.2792 323.0152 122.7042 323.7109 123.241 324.3813 123.8905 325.0519 124.5402 325.6605 125.2519 326.2071 126.0264 326.7533 126.8008 327.2253 127.5375 327.6227 128.2371 328.6162 129.8358 329.6843 131.6718 330.827 133.7451 331.9693 135.8184 333.2115 138.204 334.5525 140.9017 336.0733 144.6591 335.8159 142.3191 335.6263 145.2555 334.9721 155.3941 343.1957 176.0624 347.705 175.0603 354.4296 173.5662 345.7528 155.3737 343.7181 150.7938L339.5452 142.1008C342.7554 139.568 346.2004 142.3681 348.9732 146.0489 350.229 147.7162 351.144 149.3172 352.148 151.1252 353.5466 153.6429 354.8636 156.5399 356.5998 159.7272 358.3361 162.9145 360.2151 166.1264 362.2371 169.3633 364.2593 172.6002 366.3558 175.7517 368.5269 178.8182 370.6977 181.8845 372.8506 184.5944 374.9854 186.948 377.1201 189.3019 379.2302 191.1694 381.3157 192.5512 383.4011 193.9329 385.3548 194.5746 387.1763 194.4763 389.3746 194.3578 391.1888 193.805 392.6186 192.818 394.0486 191.8312 395.1788 190.5197 396.0088 188.8829 396.8391 187.2465 397.3893 185.3651 397.6591 183.2389 397.9293 181.1129 398.0018 178.8185 397.8768 176.3563 397.8374 175.5788 397.7816 174.786 397.709 173.9778 397.6364 173.1696 397.5491 172.3785 397.4468 171.6043 396.6222 165.2817 395.238 159.103 393.2946 153.068 391.3509 147.0334 389.2493 140.9907 386.9901 134.9405L385.4443 130.5408 385.4492 130.638C385.2082 129.6116 385.0679 128.7096 385.0285 127.9321 384.9922 127.2195 384.8984 126.6072 384.7465 126.0955 384.4525 125.267 383.9244 124.7919 383.1625 124.6706 382.4008 124.5492 381.5867 124.6419 380.7204 124.9486 378.1318 126.0629 376.2703 127.2353 375.1362 128.4661 374.002 129.6969 373.4824 131.2517 373.578 133.1308 373.6239 134.0379 373.7846 135.0363 374.0604 136.1259 374.3362 137.2156 374.6954 138.3979 375.1379 139.6735 375.8712 141.713 376.7051 144.1857 377.6397 147.0915 378.5746 149.997 379.5015 153.0655 380.4214 156.297 381.3409 159.5285 382.1814 162.7478 382.9425 165.9552 383.7036 169.1626 384.3099 172.1186 384.762 174.8231 384.8579 175.4677 384.9403 176.1616 385.0095 176.9049 385.0787 177.6484 385.1263 178.2794 385.1527 178.7975 385.2677 181.0653 385.1408 182.9078 384.7717 184.3245 384.4029 185.7413 383.686 186.5109 382.6216 186.6334 381.7423 186.6807 380.6938 186.1852 379.476 185.1463 378.258 184.1077 376.9435 182.7167 375.5327 180.9737 374.1216 179.2307 372.6669 177.2464 371.1682 175.0209 369.6698 172.7952 368.1663 170.4725 366.658 168.0525 365.1497 165.6326 363.706 163.2416 362.3264 160.8797 360.9471 158.5179 359.7038 156.3596 358.5971 154.4054 357.7017 152.8943 356.9253 151.5557 356.2676 150.3893 355.413 148.8728 354.422 147.3656 353.5047 145.8714ZM183.6592 186.1226C184.1406 185.0958 184.4691 184.1652 184.6451 183.3301 184.8209 182.4951 184.8671 181.7297 184.7832 181.0338 184.5522 179.3455 183.7843 178.0736 182.48 177.2184 181.1758 176.3634 179.8466 175.9723 178.4923 176.0454 177.3317 176.108 176.3408 176.6494 175.5196 177.6694 174.6984 178.6893 174.3891 180.2443 174.5923 182.3346 174.6811 183.13 174.8914 183.9317 175.2233 184.7392 175.5553 185.5468 175.9555 186.2631 176.4235 186.8882 176.8918 187.5135 177.4383 188.0093 178.0631 188.3755 178.6878 188.742 179.3387 188.907 180.0159 188.8705 180.6446 188.8367 181.2753 188.6026 181.908 188.168 182.5407 187.7338 183.1243 187.0517 183.6592 186.1226ZM367.1294 106.581C366.5044 107.9141 366.0775 109.1228 365.8493 110.2071 365.6208 111.2916 365.561 112.2854 365.6699 113.1894 365.97 115.382 366.967 117.0337 368.661 118.1443 370.3547 119.2547 372.081 119.7626 373.8396 119.6677 375.3471 119.5863 376.634 118.8833 377.7004 117.5587 378.7668 116.2344 379.1682 114.2147 378.9045 111.5002 378.7892 110.467 378.5159 109.4258 378.0848 108.377 377.6536 107.3285 377.134 106.3981 376.5263 105.5863 375.9182 104.7745 375.2084 104.1307 374.3972 103.6548 373.5856 103.1788 372.7403 102.9645 371.861 103.0119 371.0443 103.0561 370.2254 103.3603 369.4037 103.9243 368.5822 104.4884 367.8242 105.374 367.1294 106.581ZM339.4888 150.2436C339.628 148.5751 340.7964 148.5904 342.013 151.8551 343.0091 154.5279 348.5923 168.7374 346.6522 170.6494 345.3608 171.9224 339.0687 155.2731 339.4888 150.2436Z"/>
<path transform="matrix(1,0,0,-1,4.3307,272.8683)" d="M87.738 59.3337C89.0736 58.6412 90.2183 57.6893 91.1721 56.4775L93.8049 60.1991C92.5075 61.6703 90.9814 62.8387 89.1879 63.7041 87.3947 64.5262 85.5249 64.9587 83.6555 64.9587 81.0607 64.9587 78.6951 64.2665 76.5584 62.9252 74.3834 61.5838 72.7047 59.7229 71.4835 57.3432 70.2244 54.9632 69.6141 52.3667 69.6141 49.5108 69.6141 46.6118 70.2244 44.0152 71.4455 41.6356 72.6664 39.2556 74.3454 37.3946 76.4821 36.0102 78.5806 34.6255 80.9464 33.933 83.5027 33.933 85.3724 33.933 87.2039 34.4092 89.0354 35.3177 90.8668 36.2265 92.4695 37.438 93.8429 38.9959L91.1721 42.3711C90.142 41.2461 88.9971 40.3807 87.7 39.7315 86.3646 39.0824 85.0671 38.7363 83.7317 38.7363 81.9765 38.7363 80.3741 39.2122 78.9242 40.2075 77.474 41.1593 76.3294 42.4576 75.49 44.1451 74.6124 45.7894 74.1926 47.607 74.1926 49.5541 74.1926 51.5446 74.6124 53.3619 75.4517 55.0497 76.2914 56.694 77.436 57.992 78.9242 58.9442 80.3741 59.8961 81.9765 60.372 83.7317 60.372 85.0671 60.372 86.4026 60.0259 87.738 59.3337ZM109.1435 34.3225H113.4553L113.417 49.4243C113.379 51.9775 112.6539 53.968 111.2423 55.3958 109.8303 56.8239 107.8081 57.5161 105.2135 57.5161 103.4201 57.5161 101.8939 57.2998 100.673 56.867 99.4139 56.391 98.0402 55.6554 96.4757 54.6168L98.2692 51.1551C100.2915 52.7131 102.3137 53.4917 104.2597 53.4917 105.8241 53.4917 107.045 53.1026 107.8843 52.2802 108.6857 51.4582 109.1055 50.3331 109.1055 48.8619V48.1694H102.9623C100.5585 48.126 98.6508 47.5203 97.3154 46.2654 95.9797 45.0105 95.2929 43.3664 95.2929 41.2461 95.2929 39.9044 95.5981 38.6929 96.1705 37.6112 96.7428 36.5292 97.5824 35.6638 98.6888 35.058 99.7571 34.4092 101.0163 34.1062 102.4282 34.1062 105.4426 34.1062 107.6936 35.1014 109.1435 37.1353ZM107.312 39.2987C106.2057 38.4766 104.9083 38.0438 103.3438 38.0438 102.1229 38.0438 101.1691 38.3468 100.4822 38.9959 99.7571 39.6017 99.4139 40.4237 99.4139 41.4624 99.4139 42.5441 99.7571 43.3664 100.444 43.8423 101.0925 44.3183 102.1609 44.5346 103.6111 44.5346H109.1055V42.4142C108.991 41.1593 108.3804 40.121 107.312 39.2987ZM125.3979 61.5404C125.894 62.0597 126.5428 62.3194 127.3439 62.3194 128.0307 62.3194 128.8704 62.0597 129.9005 61.5838L130.8163 65.6512C129.6334 66.3004 128.4506 66.6465 127.2297 66.6465 126.0085 66.6465 124.8639 66.3435 123.7955 65.7811 122.7271 65.1753 121.8878 64.2665 121.2389 63.0981 120.5904 61.8866 120.2471 60.4154 120.2471 58.7276V56.4775H117.576V52.7562H120.2471V34.3225H124.5969V52.7562H129.9005V56.4775H124.5969V59.2038C124.5969 60.2422 124.8639 61.0211 125.3979 61.5404ZM149.2838 54.4439C147.6811 56.4775 145.2773 57.5161 142.0722 57.5161 140.0882 57.5161 138.333 57.0402 136.7685 56.0449 135.2041 55.0497 133.9832 53.6649 133.1056 51.8907 132.228 50.1165 131.8082 48.083 131.8082 45.7894 131.8082 43.4962 132.228 41.5057 133.1056 39.7315 133.9832 37.9573 135.2041 36.616 136.7685 35.6207 138.333 34.6255 140.1262 34.1495 142.1867 34.1495 143.9036 34.1495 145.5063 34.4957 146.918 35.1879 148.3299 35.837 149.5508 36.7889 150.5809 38.0438L148.2534 40.8566C147.5286 39.9912 146.651 39.342 145.6588 38.8661 144.6667 38.3902 143.6366 38.1736 142.53 38.1736 140.9275 38.1736 139.5539 38.6929 138.4475 39.7315 137.3409 40.7268 136.5778 42.1546 136.2345 43.9288H151.573C151.6113 44.7942 151.6493 45.4 151.6493 45.7894 151.6493 49.5108 150.8482 52.41 149.2838 54.4439ZM147.7573 47.5637H136.158C136.387 49.4243 137.0356 50.8524 138.1039 51.9341 139.1723 53.0158 140.5077 53.5351 142.1104 53.5351 143.7511 53.5351 145.0865 53.0158 146.1166 51.9341 147.147 50.8524 147.6811 49.4243 147.7573 47.5637ZM185.5701 33.5004 187.8214 36.0967 183.4716 40.8997C184.5017 42.4576 185.4176 44.3616 186.2569 46.6549L183.3951 49.0782C182.7082 47.001 181.9071 45.1837 180.9913 43.626 178.5112 46.3521 176.6415 48.5589 175.3824 50.2033 176.7178 51.0253 177.8627 51.7609 178.7783 52.4965 179.6559 53.189 180.419 54.0544 180.9913 55.0497 181.5636 56.0449 181.8689 57.17 181.8689 58.4683 181.8689 60.3289 181.2586 61.8866 179.9994 63.055 178.74 64.2231 177.0993 64.8289 175.1153 64.8289 173.0548 64.8289 171.3762 64.1801 170.117 62.9252 168.8196 61.6703 168.171 60.0259 168.171 57.992 168.171 56.9103 168.3618 55.8286 168.7813 54.7036 169.2011 53.5785 169.8497 52.3236 170.7273 50.9822 168.9341 49.9003 167.5222 48.6887 166.4921 47.4338 165.462 46.1789 164.9659 44.5346 164.9659 42.5874 164.9659 40.9864 165.3474 39.5152 166.0723 38.2603 166.7974 36.9621 167.8275 35.9668 169.0866 35.2312 170.3458 34.4957 171.7957 34.1062 173.3601 34.1062 176.222 34.1062 178.9311 35.4475 181.4111 38.1305L183.3188 36.0102ZM173.6271 52.6697C172.2917 54.7036 171.6432 56.5209 171.6432 58.0354 171.6432 59.1171 171.9865 59.9825 172.6353 60.675 173.2839 61.3672 174.1232 61.7134 175.1536 61.7134 176.1454 61.7134 176.9468 61.4106 177.5191 60.8479 178.0914 60.2422 178.3967 59.4201 178.3967 58.4249 178.3967 57.2134 177.9769 56.1747 177.1758 55.3524 176.3745 54.487 175.1916 53.5785 173.6271 52.6697ZM179.0073 40.8132C177.2138 38.8661 175.3824 37.8709 173.5126 37.8709 172.101 37.8709 170.9563 38.3468 170.0025 39.2987 169.0486 40.2508 168.5906 41.4624 168.5906 42.9769 168.5906 44.1451 168.9341 45.1403 169.6209 46.0057 170.3078 46.8281 171.2616 47.6501 172.5208 48.4724 173.8179 46.7847 175.9929 44.2318 179.0073 40.8132ZM219.2618 34.3225H224.3747L218.3842 44.4481C220.1777 45.2271 221.5511 46.4386 222.5049 48.126 223.4591 49.8138 223.9169 51.8477 223.9169 54.2707 223.9169 57.5595 222.963 60.1123 221.0933 61.9299 219.2236 63.7041 216.5528 64.6126 213.1569 64.6126H202.3206V34.3225H206.8228V43.4529H213.1569C213.7292 43.4529 214.1107 43.4529 214.3777 43.4962ZM213.1569 48.0396H206.8228V60.0259H213.1569C215.2553 60.0259 216.858 59.55 217.9644 58.5547 219.0711 57.5595 219.6434 56.0883 219.6434 54.1409 219.6434 52.1073 219.0711 50.5928 217.9644 49.5975 216.858 48.5589 215.2553 48.0396 213.1569 48.0396ZM244.292 54.4439C242.6896 56.4775 240.2858 57.5161 237.0807 57.5161 235.0964 57.5161 233.3415 57.0402 231.7771 56.0449 230.2126 55.0497 228.9915 53.6649 228.1141 51.8907 227.2365 50.1165 226.8167 48.083 226.8167 45.7894 226.8167 43.4962 227.2365 41.5057 228.1141 39.7315 228.9915 37.9573 230.2126 36.616 231.7771 35.6207 233.3415 34.6255 235.1347 34.1495 237.1952 34.1495 238.9122 34.1495 240.5149 34.4957 241.9265 35.1879 243.3382 35.837 244.5593 36.7889 245.5894 38.0438L243.2619 40.8566C242.5371 39.9912 241.6595 39.342 240.6674 38.8661 239.6752 38.3902 238.6451 38.1736 237.5385 38.1736 235.9361 38.1736 234.5624 38.6929 233.4557 39.7315 232.3494 40.7268 231.5863 42.1546 231.2427 43.9288H246.5816C246.6196 44.7942 246.6578 45.4 246.6578 45.7894 246.6578 49.5108 245.8565 52.41 244.292 54.4439ZM242.7659 47.5637H231.1665C231.3955 49.4243 232.0441 50.8524 233.1125 51.9341 234.1809 53.0158 235.5163 53.5351 237.119 53.5351 238.7597 53.5351 240.0951 53.0158 241.1252 51.9341 242.1556 50.8524 242.6896 49.4243 242.7659 47.5637ZM259.7071 53.0592C260.7375 52.6697 261.7294 52.1938 262.607 51.5446L264.2097 55.2229C263.2938 55.9585 262.2254 56.5209 260.9663 56.9537 259.7071 57.3432 258.41 57.5595 257.1126 57.5595 254.9758 57.5595 253.1826 56.9968 251.7707 55.8717 250.359 54.7036 249.6339 53.0592 249.6339 50.8524 249.6339 49.3809 249.9392 48.2128 250.5498 47.3474 251.1604 46.4386 251.8852 45.7894 252.7628 45.3569 253.6021 44.8807 254.7088 44.4481 256.0442 43.9722 257.0743 43.626 257.8377 43.323 258.3717 43.1067 258.906 42.8471 259.3638 42.501 259.7454 42.1115 260.0887 41.6786 260.2794 41.1593 260.2794 40.5105 260.2794 39.6882 259.9741 39.039 259.3638 38.6495 258.7533 38.2603 257.9519 38.0438 256.9601 38.0438 255.8151 38.0438 254.6325 38.3034 253.3734 38.8227 252.1142 39.342 251.0459 40.0343 250.1683 40.8997L248.6038 37.3516C249.5959 36.3563 250.8168 35.5774 252.305 35.015 253.7549 34.4523 255.2428 34.1495 256.7693 34.1495 258.9823 34.1495 260.8517 34.7553 262.3399 35.9235 263.8281 37.0919 264.5529 38.7794 264.5529 41.0295 264.5529 42.5441 264.2477 43.7559 263.5991 44.6644 262.9505 45.5732 262.1492 46.2654 261.2716 46.7416 260.356 47.2175 259.2111 47.6501 257.8377 48.126 256.3877 48.6454 255.3574 49.1213 254.7468 49.5108 254.0982 49.9003 253.7929 50.506 253.7929 51.285 253.7929 52.0639 254.0602 52.6263 254.5943 53.0158 255.1286 53.4053 255.8534 53.5785 256.7693 53.5785 257.6469 53.5785 258.6387 53.4053 259.7071 53.0592ZM281.0364 35.7936 279.9298 39.6017C278.7089 38.9526 277.6788 38.6065 276.8774 38.6065 276.1523 38.6065 275.58 38.8227 275.2367 39.2987 274.8932 39.7746 274.7024 40.5536 274.7024 41.722V52.7562H280.6929V56.4775H274.7024V62.7953H270.3526V56.4775H267.4911V52.7562H270.3526V40.8132C270.3526 38.6065 270.887 36.9187 271.9553 35.7936 273.0237 34.6686 274.3971 34.1062 276.0381 34.1062 277.6788 34.1062 279.3574 34.6686 281.0364 35.7936ZM296.9855 34.3225H301.2973L301.2591 49.4243C301.2208 51.9775 300.496 53.968 299.084 55.3958 297.6724 56.8239 295.6501 57.5161 293.0556 57.5161 291.2621 57.5161 289.7359 57.2998 288.5151 56.867 287.2559 56.391 285.8822 55.6554 284.3178 54.6168L286.111 51.1551C288.1335 52.7131 290.1557 53.4917 292.1017 53.4917 293.6659 53.4917 294.8871 53.1026 295.7264 52.2802 296.5277 51.4582 296.9476 50.3331 296.9476 48.8619V48.1694H290.8043C288.4005 48.126 286.4928 47.5203 285.1571 46.2654 283.8217 45.0105 283.1349 43.3664 283.1349 41.2461 283.1349 39.9044 283.4402 38.6929 284.0125 37.6112 284.5848 36.5292 285.4244 35.6638 286.5308 35.058 287.5992 34.4092 288.8583 34.1062 290.27 34.1062 293.2843 34.1062 295.5356 35.1014 296.9855 37.1353ZM295.1541 39.2987C294.0477 38.4766 292.7503 38.0438 291.1859 38.0438 289.965 38.0438 289.0111 38.3468 288.3243 38.9959 287.5992 39.6017 287.2559 40.4237 287.2559 41.4624 287.2559 42.5441 287.5992 43.3664 288.286 43.8423 288.9346 44.3183 290.003 44.5346 291.4529 44.5346H296.9476V42.4142C296.833 41.1593 296.2225 40.121 295.1541 39.2987ZM325.4499 57.3432H321.0622V46.0057C321.0622 43.9288 320.5661 42.2413 319.574 40.8997 318.5439 39.5583 317.2082 38.8661 315.4912 38.8227 314.0031 38.8227 312.8584 39.342 312.0191 40.3373 311.1797 41.3325 310.7599 42.6739 310.7599 44.4047V57.3432H306.3719V43.02C306.3719 40.2939 307.0208 38.1305 308.3562 36.5292 309.6916 34.9282 311.4848 34.1495 313.8123 34.1495 317.3227 34.1926 319.7265 35.7506 321.0622 38.8227V34.3225H325.4499ZM338.652 56.3046C337.4691 55.4822 336.5152 54.3141 335.8284 52.7562V57.3432H331.4404V34.3225H335.8284V46.3521C336.0192 48.3857 336.706 49.987 337.9652 51.1551 339.2243 52.3236 340.8267 52.886 342.849 52.7562V57.5161C341.2466 57.5161 339.8349 57.1266 338.652 56.3046ZM358.5694 34.3225H362.8811L362.8429 49.4243C362.8046 51.9775 362.0798 53.968 360.6678 55.3958 359.2562 56.8239 357.234 57.5161 354.6394 57.5161 352.8459 57.5161 351.3197 57.2998 350.0989 56.867 348.8397 56.391 347.466 55.6554 345.9016 54.6168L347.6948 51.1551C349.7173 52.7131 351.7396 53.4917 353.6855 53.4917 355.2497 53.4917 356.4709 53.1026 357.3102 52.2802 358.1116 51.4582 358.5314 50.3331 358.5314 48.8619V48.1694H352.3881C349.9843 48.126 348.0763 47.5203 346.7409 46.2654 345.4055 45.0105 344.7187 43.3664 344.7187 41.2461 344.7187 39.9044 345.024 38.6929 345.5963 37.6112 346.1686 36.5292 347.0083 35.6638 348.1146 35.058 349.183 34.4092 350.4421 34.1062 351.8538 34.1062 354.8682 34.1062 357.1194 35.1014 358.5694 37.1353ZM356.7379 39.2987C355.6312 38.4766 354.3341 38.0438 352.7697 38.0438 351.5488 38.0438 350.5949 38.3468 349.9081 38.9959 349.183 39.6017 348.8397 40.4237 348.8397 41.4624 348.8397 42.5441 349.183 43.3664 349.8698 43.8423 350.5184 44.3183 351.5868 44.5346 353.0367 44.5346H358.5314V42.4142C358.4169 41.1593 357.8063 40.121 356.7379 39.2987ZM385.7746 55.1795C384.4392 56.7371 382.5694 57.5161 380.2039 57.5161 376.579 57.5161 374.099 56.0015 372.7253 52.9294V57.3432H368.3373V34.3225H372.7253V46.5684C372.8778 48.4291 373.4884 49.9003 374.5185 51.0687 375.5489 52.2369 376.846 52.7995 378.4867 52.8429 380.0132 52.8429 381.1958 52.3667 382.0734 51.3714 382.951 50.3762 383.3708 48.9917 383.3708 47.2606V34.3225H387.7588V48.6454C387.7588 51.4148 387.11 53.5785 385.7746 55.1795ZM405.4249 35.7936 404.3186 39.6017C403.0974 38.9526 402.0673 38.6065 401.2659 38.6065 400.5411 38.6065 399.9688 38.8227 399.6252 39.2987 399.282 39.7746 399.0912 40.5536 399.0912 41.722V52.7562H405.0816V56.4775H399.0912V62.7953H394.7411V56.4775H391.8796V52.7562H394.7411V40.8132C394.7411 38.6065 395.2755 36.9187 396.3438 35.7936 397.4122 34.6686 398.7859 34.1062 400.4266 34.1062 402.0673 34.1062 403.746 34.6686 405.4249 35.7936" fill="#ffffff"/>
<path transform="matrix(1,0,0,-1,4.3307,272.8683)" d="M451.7059 92.1685 433.5029 98.8758C434.3907 101.598 434.9299 103.2344 435.138 103.8351 437.2359 109.8944 439.9319 114.5191 443.2589 117.7254 446.5531 120.9158 451.9621 123.8916 459.5105 126.6435 467.0504 129.3704 471.655 131.2875 473.3243 132.3944 475.9285 134.1451 477.7211 136.4771 478.7181 139.3566 480.0966 143.3375 479.7309 147.3401 477.5797 151.323 475.4614 155.3219 471.7568 158.2963 466.4659 160.2459 461.3689 162.1242 456.6013 162.1868 452.1234 160.4772 447.6609 158.7339 443.7289 155.0446 440.3186 149.3844L422.8021 158.5491C426.3792 167.1406 432.5703 173.2442 441.4173 176.9012 450.2642 180.5579 460.1563 180.3572 471.0779 176.3325 482.5823 172.0933 490.6573 165.617 495.3115 156.9288 499.966 148.2403 500.8759 139.8025 498.0234 131.565 496.4545 127.0332 493.7168 123.158 489.8126 120.0231 485.9082 116.888 478.677 113.3135 468.0703 109.3167 462.5989 107.2675 458.9634 105.304 457.1813 103.4765 455.3989 101.6487 453.5768 97.8877 451.7059 92.1685ZM423.9317 71.2344 431.058 91.8153 449.261 85.1077 442.1347 64.527Z" fill="#e3000f"/>
</g>
</svg>
